<svg xmlns="http://www.w3.org/2000/svg" viewBox="0 0 500 500"><g id="freepik--background-simple--inject-28"><path d="M256.26,136.56c-62,12.09-182,17.09-166.24,106,15.61,88.27,152.07,79.54,214.68,51.5C368,265.73,489.5,142.53,412.29,88.85,359.16,51.91,324.7,123.19,256.26,136.56Z" style="fill:#0DCAF0"></path><path d="M256.26,136.56c-62,12.09-182,17.09-166.24,106,15.61,88.27,152.07,79.54,214.68,51.5C368,265.73,489.5,142.53,412.29,88.85,359.16,51.91,324.7,123.19,256.26,136.56Z" style="fill:#fff;opacity:0.9"></path></g><g id="freepik--Shadow--inject-28"><ellipse id="freepik--path--inject-28" cx="250" cy="416.24" rx="193.89" ry="11.32" style="fill:#f5f5f5"></ellipse></g><g id="freepik--data-sheet--inject-28"><path d="M378,99.88h29.13c5.8,0,10.51,6.79,7.14,13.58H298.77c4-8-3.15-13.58-7.15-13.58Z" style="fill:#0DCAF0"></path><path d="M286.24,99.88h118.5c-16.23,0-30.7,13.15-32.34,29.37l-21,208.17c-1.64,16.22-16.11,29.37-32.34,29.37H259.33c-16.22,0-28-13.15-26.41-29.37l21-208.17C255.54,113,270,99.88,286.24,99.88Z" style="fill:#0DCAF0"></path><path d="M286.24,99.88h118.5c-16.23,0-30.7,13.15-32.34,29.37l-21,208.17c-1.64,16.22-16.11,29.37-32.34,29.37H259.33c-16.22,0-28-13.15-26.41-29.37l21-208.17C255.54,113,270,99.88,286.24,99.88Z" style="fill:#fff;opacity:0.7000000000000001"></path><path d="M292.67,337.42h0a8.52,8.52,0,0,0-8.63-9.6H165.54a8.52,8.52,0,0,1,8.64,9.6h0c-1.64,16.22,10.19,29.37,26.41,29.37H319.08C302.86,366.79,291,353.64,292.67,337.42Z" style="fill:#0DCAF0"></path><path d="M171.79,327.81H142.66a9.81,9.81,0,0,0-9.77,9.61H274.27a9.81,9.81,0,0,1,9.77-9.61Z" style="fill:#0DCAF0"></path><path d="M171.79,327.81H142.66a9.81,9.81,0,0,0-9.77,9.61H274.27a9.81,9.81,0,0,1,9.77-9.61Z" style="fill:#fff;opacity:0.6000000000000001"></path><g style="opacity:0.5"><polygon points="273.07 201.93 264.13 201.93 265.04 193 273.97 193 273.07 201.93" style="fill:#fff"></polygon><polygon points="287.82 201.93 278.89 201.93 279.79 193 288.72 193 287.82 201.93" style="fill:#fff"></polygon><polygon points="302.58 201.93 293.64 201.93 294.54 193 303.48 193 302.58 201.93" style="fill:#fff"></polygon><polygon points="317.33 201.93 308.39 201.93 309.3 193 318.23 193 317.33 201.93" style="fill:#fff"></polygon><polygon points="332.08 201.93 323.15 201.93 324.05 193 332.98 193 332.08 201.93" style="fill:#fff"></polygon><polygon points="346.84 201.93 337.9 201.93 338.8 193 347.74 193 346.84 201.93" style="fill:#fff"></polygon><polygon points="271.58 216.69 262.65 216.69 263.55 207.75 272.48 207.75 271.58 216.69" style="fill:#fff"></polygon><polygon points="286.34 216.69 277.4 216.69 278.3 207.75 287.24 207.75 286.34 216.69" style="fill:#fff"></polygon><polygon points="301.09 216.69 292.15 216.69 293.06 207.75 301.99 207.75 301.09 216.69" style="fill:#fff"></polygon><polygon points="315.84 216.69 306.91 216.69 307.81 207.75 316.74 207.75 315.84 216.69" style="fill:#fff"></polygon><polygon points="330.6 216.69 321.66 216.69 322.56 207.75 331.5 207.75 330.6 216.69" style="fill:#fff"></polygon><polygon points="345.35 216.69 336.41 216.69 337.31 207.75 346.25 207.75 345.35 216.69" style="fill:#fff"></polygon><polygon points="270.1 231.44 261.16 231.44 262.06 222.5 271 222.5 270.1 231.44" style="fill:#fff"></polygon><polygon points="284.85 231.44 275.91 231.44 276.81 222.5 285.75 222.5 284.85 231.44" style="fill:#fff"></polygon><polygon points="299.6 231.44 290.67 231.44 291.57 222.5 300.5 222.5 299.6 231.44" style="fill:#fff"></polygon><polygon points="314.36 231.44 305.42 231.44 306.32 222.5 315.26 222.5 314.36 231.44" style="fill:#fff"></polygon><polygon points="329.11 231.44 320.17 231.44 321.07 222.5 330.01 222.5 329.11 231.44" style="fill:#fff"></polygon><polygon points="343.86 231.44 334.93 231.44 335.83 222.5 344.76 222.5 343.86 231.44" style="fill:#fff"></polygon><polygon points="268.61 246.19 259.67 246.19 260.57 237.26 269.51 237.26 268.61 246.19" style="fill:#fff"></polygon><polygon points="283.36 246.19 274.43 246.19 275.33 237.26 284.26 237.26 283.36 246.19" style="fill:#fff"></polygon><polygon points="298.11 246.19 289.18 246.19 290.08 237.26 299.01 237.26 298.11 246.19" style="fill:#fff"></polygon><polygon points="312.87 246.19 303.93 246.19 304.83 237.26 313.77 237.26 312.87 246.19" style="fill:#fff"></polygon><polygon points="327.62 246.19 318.69 246.19 319.59 237.26 328.52 237.26 327.62 246.19" style="fill:#fff"></polygon><polygon points="342.37 246.19 333.44 246.19 334.34 237.26 343.27 237.26 342.37 246.19" style="fill:#fff"></polygon><polygon points="267.12 260.95 258.19 260.95 259.09 252.01 268.02 252.01 267.12 260.95" style="fill:#fff"></polygon><polygon points="281.87 260.95 272.94 260.95 273.84 252.01 282.77 252.01 281.87 260.95" style="fill:#fff"></polygon><polygon points="296.63 260.95 287.69 260.95 288.59 252.01 297.53 252.01 296.63 260.95" style="fill:#fff"></polygon><polygon points="311.38 260.95 302.44 260.95 303.35 252.01 312.28 252.01 311.38 260.95" style="fill:#fff"></polygon><polygon points="326.13 260.95 317.2 260.95 318.1 252.01 327.03 252.01 326.13 260.95" style="fill:#fff"></polygon><polygon points="340.89 260.95 331.95 260.95 332.85 252.01 341.79 252.01 340.89 260.95" style="fill:#fff"></polygon><polygon points="265.63 275.7 256.7 275.7 257.6 266.76 266.53 266.76 265.63 275.7" style="fill:#fff"></polygon><polygon points="280.39 275.7 271.45 275.7 272.35 266.76 281.29 266.76 280.39 275.7" style="fill:#fff"></polygon><polygon points="295.14 275.7 286.2 275.7 287.11 266.76 296.04 266.76 295.14 275.7" style="fill:#fff"></polygon><polygon points="309.89 275.7 300.96 275.7 301.86 266.76 310.79 266.76 309.89 275.7" style="fill:#fff"></polygon><polygon points="324.65 275.7 315.71 275.7 316.61 266.76 325.55 266.76 324.65 275.7" style="fill:#fff"></polygon><polygon points="339.4 275.7 330.46 275.7 331.37 266.76 340.3 266.76 339.4 275.7" style="fill:#fff"></polygon></g><path d="M270.26,266.76a4.22,4.22,0,0,1-4.1,3.73,3.31,3.31,0,0,1-3.35-3.73,4.2,4.2,0,0,1,4.1-3.72A3.3,3.3,0,0,1,270.26,266.76Z" style="fill:#0DCAF0"></path><path d="M289.48,222.5a4.23,4.23,0,0,1-4.11,3.73A3.31,3.31,0,0,1,282,222.5a4.23,4.23,0,0,1,4.11-3.72A3.32,3.32,0,0,1,289.48,222.5Z" style="fill:#0DCAF0"></path><path d="M317.5,237.26a4.23,4.23,0,0,1-4.11,3.73,3.31,3.31,0,0,1-3.35-3.73,4.23,4.23,0,0,1,4.1-3.73A3.32,3.32,0,0,1,317.5,237.26Z" style="fill:#0DCAF0"></path><path d="M350,207.75a4.23,4.23,0,0,1-4.11,3.73,3.31,3.31,0,0,1-3.35-3.73,4.23,4.23,0,0,1,4.11-3.73A3.31,3.31,0,0,1,350,207.75Z" style="fill:#0DCAF0"></path><path d="M266.53,267.86a1.09,1.09,0,0,1-1-1.53l19.22-44.26a1.08,1.08,0,0,1,.64-.6,1.1,1.1,0,0,1,.87.07l27.34,14.39,31.91-29a1.1,1.1,0,0,1,1.55.08,1.09,1.09,0,0,1-.08,1.54L314.5,238.07a1.07,1.07,0,0,1-1.24.15l-27-14.2L267.54,267.2A1.1,1.1,0,0,1,266.53,267.86Z" style="fill:#0DCAF0"></path><polygon points="262.44 307.34 253.51 307.34 253.96 302.87 262.89 302.87 262.44 307.34" style="fill:#0DCAF0;opacity:0.5"></polygon><polygon points="277.2 307.34 268.26 307.34 269.81 291.95 278.75 291.95 277.2 307.34" style="fill:#0DCAF0;opacity:0.6000000000000001"></polygon><polygon points="291.95 307.34 283.01 307.34 283.92 298.4 292.85 298.4 291.95 307.34" style="fill:#0DCAF0;opacity:0.7000000000000001"></polygon><polygon points="306.7 307.34 297.77 307.34 298.95 295.59 307.89 295.59 306.7 307.34" style="fill:#0DCAF0;opacity:0.8"></polygon><polygon points="321.46 307.34 312.52 307.34 313.24 300.21 322.18 300.21 321.46 307.34" style="fill:#0DCAF0;opacity:0.9"></polygon><polygon points="336.21 307.34 327.27 307.34 327.73 302.87 336.66 302.87 336.21 307.34" style="fill:#0DCAF0"></polygon><path d="M346.74,177.41H269.18a2.28,2.28,0,0,1-2.31-2.57l3.53-35.1a2.91,2.91,0,0,1,2.83-2.57H350.8a2.29,2.29,0,0,1,2.31,2.57l-3.54,35.1A2.91,2.91,0,0,1,346.74,177.41Z" style="fill:#fff;opacity:0.5"></path><path d="M293.55,157.29l6.42-13.8a13,13,0,0,1,8.28,13.8,16.78,16.78,0,0,1-13.6,14.47Z" style="fill:#0DCAF0"></path><path d="M293.55,157.29l1.1,14.47a15,15,0,0,1-2.58.22,13.1,13.1,0,0,1-13.21-14.69A16.72,16.72,0,0,1,295,142.6a13.85,13.85,0,0,1,4.93.89Z" style="fill:#fff"></path><polygon points="328.47 153.72 334.04 153.72 332.2 171.96 326.63 171.96 328.47 153.72" style="fill:#fff"></polygon><polygon points="336.96 163.42 342.53 163.42 341.67 171.96 336.1 171.96 336.96 163.42" style="fill:#fff"></polygon><polygon points="336.96 163.42 342.53 163.42 343.06 158.21 337.49 158.21 336.96 163.42" style="fill:#0DCAF0"></polygon><polygon points="328.47 153.72 334.04 153.72 335.16 142.6 329.59 142.6 328.47 153.72" style="fill:#0DCAF0"></polygon><polygon points="318.67 157.04 324.24 157.04 322.74 171.96 317.17 171.96 318.67 157.04" style="fill:#fff"></polygon><polygon points="318.67 157.04 324.24 157.04 324.93 150.2 319.36 150.2 318.67 157.04" style="fill:#0DCAF0"></polygon></g><g id="freepik--Character--inject-28"><path d="M134.3,159.55c-.44.73-1,1.65-1.43,2.49s-1,1.75-1.41,2.63c-.9,1.78-1.81,3.55-2.64,5.37a93.1,93.1,0,0,0-4.32,11l-.42,1.4-.2.71-.06.17s0,0,0,0,0,0,0,0a2.63,2.63,0,0,0,.15,1.32,22.87,22.87,0,0,0,2.28,4.76,109.33,109.33,0,0,0,6.92,9.85L130,202.6a56.63,56.63,0,0,1-9.6-9,25.73,25.73,0,0,1-3.94-6.11,10.92,10.92,0,0,1-1-4.79,7.53,7.53,0,0,1,.09-.8l.07-.42,0-.2.17-.82.35-1.64a80.23,80.23,0,0,1,4.15-12.55c.86-2,1.77-4,2.79-5.94.5-1,1-1.94,1.56-2.9s1.09-1.87,1.76-2.91Z" style="fill:#ff8b7b"></path><path d="M130.88,197.45l7.52.31-3,6.45s-5.35-.3-7.36-3.54Z" style="fill:#ff8b7b"></path><polygon points="140.26 200.66 138.4 206.44 135.37 204.22 138.4 197.76 140.26 200.66" style="fill:#ff8b7b"></polygon><path d="M146.5,407.46a11.32,11.32,0,0,1-2.42-.33.23.23,0,0,1-.17-.17.22.22,0,0,1,.09-.22c.31-.21,3.07-2,4.14-1.52a.76.76,0,0,1,.44.61,1.21,1.21,0,0,1-.34,1.15A2.59,2.59,0,0,1,146.5,407.46Zm-1.81-.64c1.6.32,2.79.26,3.25-.16a.78.78,0,0,0,.21-.77.34.34,0,0,0-.18-.28C147.4,405.36,145.81,406.13,144.69,406.82Z" style="fill:#0DCAF0"></path><path d="M144.13,407.13a.2.2,0,0,1-.11,0,.23.23,0,0,1-.11-.19c0-.11,0-2.75,1-3.63a1.13,1.13,0,0,1,.91-.29.78.78,0,0,1,.74.61c.22,1-1.42,3-2.28,3.5A.22.22,0,0,1,144.13,407.13Zm1.51-3.7a.72.72,0,0,0-.48.18c-.59.53-.77,2-.81,2.89.86-.7,1.88-2.18,1.74-2.81,0-.1-.08-.23-.36-.26Z" style="fill:#0DCAF0"></path><path d="M214.17,403.38a.24.24,0,0,1-.2-.09.21.21,0,0,1,0-.25c.28-.36,2.74-3.45,4.07-3.54h.09a.71.71,0,0,1,.59.35,1.12,1.12,0,0,1,.09,1.09c-.52,1.22-3.11,2-4.61,2.43Zm3.89-3.45c-.73.05-2.27,1.6-3.32,2.86,2-.59,3.38-1.32,3.68-2a.75.75,0,0,0-.07-.72.28.28,0,0,0-.24-.14Z" style="fill:#0DCAF0"></path><path d="M214.17,403.38h0a.21.21,0,0,1-.17-.13c0-.09-.91-2.34-.27-3.68a1.63,1.63,0,0,1,.95-.85c.58-.21.88,0,1,.18.61.83-.53,3.5-1.33,4.41A.22.22,0,0,1,214.17,403.38ZM215,399a1.16,1.16,0,0,0-.26.06,1.21,1.21,0,0,0-.7.63,4.75,4.75,0,0,0,.15,3c.74-1.07,1.42-3.07,1.06-3.57A.26.26,0,0,0,215,399Z" style="fill:#0DCAF0"></path><path d="M146.18,122.73c1,5.44,3.36,17.33-.46,20.87,0,0,1.45,5.54,11.55,5.74,11.11.21,5.34-5.4,5.34-5.4-6.05-1.57-5.87-6.05-4.79-10.25Z" style="fill:#ff8b7b"></path><path d="M143,146.36l-1.94-9.59a35.69,35.69,0,0,0,8.56,1.4c3.89,0,12.32-.31,16.51-1.76,1.16,1.64,7.24,6,7.24,6L170.65,147Z" style="fill:#0DCAF0"></path><path d="M143,146.36l-1.94-9.59a35.69,35.69,0,0,0,8.56,1.4c3.89,0,12.32-.31,16.51-1.76,1.16,1.64,7.24,6,7.24,6L170.65,147Z" style="fill:#fff;opacity:0.8"></path><path d="M167.86,112.28a.49.49,0,0,1-.19-.07.44.44,0,0,1-.13-.6,4.25,4.25,0,0,1,3.38-2,.44.44,0,0,1,.44.43.44.44,0,0,1-.43.44h0a3.37,3.37,0,0,0-2.66,1.62A.42.42,0,0,1,167.86,112.28Z" style="fill:#263238"></path><path d="M170.65,117.39a19.86,19.86,0,0,0,2.71,4.71,3.16,3.16,0,0,1-2.62.5Z" style="fill:#ff5652"></path><path d="M170,116.12c0,.74.41,1.34.89,1.34s.87-.6.85-1.34-.41-1.34-.89-1.34S170,115.38,170,116.12Z" style="fill:#263238"></path><path d="M170.6,114.82l1.77-.51S171.48,115.7,170.6,114.82Z" style="fill:#263238"></path><polygon points="205.43 409.15 214.3 406.1 208.04 386.37 199.18 389.43 205.43 409.15" style="fill:#ff8b7b"></polygon><polygon points="133.48 406.92 142.63 406.92 141.62 385.72 132.47 385.72 133.48 406.92" style="fill:#ff8b7b"></polygon><path d="M143.35,405.86H133.06a.72.72,0,0,0-.72.62l-1.06,8.14a1.5,1.5,0,0,0,1.49,1.63c3.59-.06,5.31-.27,9.83-.27,2.79,0,6.85.28,10.7.28s4-3.79,2.39-4.14c-7.2-1.54-8.36-3.67-10.81-5.7A2.45,2.45,0,0,0,143.35,405.86Z" style="fill:#263238"></path><path d="M213.14,402.5,203.63,407a.71.71,0,0,0-.41.87l2.45,7.64a1.5,1.5,0,0,0,2.07.78c3.29-1.61,4.8-2.55,9-4.51,2.57-1.21,8-3.46,11.58-5.13s2.09-5.09.46-4.7c-7.3,1.77-10.84,1.13-14,.4A2.56,2.56,0,0,0,213.14,402.5Z" style="fill:#263238"></path><polygon points="208.04 386.38 211.4 396.94 202.4 399.6 199.17 389.43 208.04 386.38" style="opacity:0.2"></polygon><polygon points="132.47 385.73 141.62 385.73 142.14 396.65 132.99 396.65 132.47 385.73" style="opacity:0.2"></polygon><path d="M129.91,145.37c-3.81.76-8,14.35-8,14.35l10.7,11.63s9-12.66,7.21-17.42C138,149,134.41,144.48,129.91,145.37Z" style="fill:#0DCAF0"></path><path d="M129.91,145.37c-3.81.76-8,14.35-8,14.35l10.7,11.63s9-12.66,7.21-17.42C138,149,134.41,144.48,129.91,145.37Z" style="opacity:0.2"></path><path d="M135.89,154.19c1.93-1.72,3.23-1.17,4.11.24.85,4.08-4.38,12.48-6.49,15.66C132.57,166.23,131.51,158.1,135.89,154.19Z" style="opacity:0.4"></path><path d="M178.81,148.53c.68,4,.83,16.19-5.42,53.16L136.18,201c.72-15.11.79-24.43-6.27-55.59a109.44,109.44,0,0,1,15.81-1.77,119.66,119.66,0,0,1,16.89.34c5.41.59,11.35,1.77,14,2.33A2.79,2.79,0,0,1,178.81,148.53Z" style="fill:#0DCAF0"></path><path d="M178.81,148.53c.68,4,.83,16.19-5.42,53.16L136.18,201c.72-15.11.79-24.43-6.27-55.59a109.44,109.44,0,0,1,15.81-1.77,119.66,119.66,0,0,1,16.89.34c5.41.59,11.35,1.77,14,2.33A2.79,2.79,0,0,1,178.81,148.53Z" style="opacity:0.2"></path><path d="M145.12,113.67c.71,9.07.82,12.92,5.47,17.56,7,7,18,4.28,20-4.78,1.81-8.16.34-21.62-8.59-25.21A12.22,12.22,0,0,0,145.12,113.67Z" style="fill:#ff8b7b"></path><path d="M147.52,97c-9.84.73-12.12,12.29-8.29,19.67-6.1,9.28-5.36,12.63-3.41,14.79,3.35,3.74,20.59,8.24,30.91.47,4.61-3.47-3.93-15.81-3.93-15.81S167.77,95.47,147.52,97Z" style="fill:#263238"></path><path d="M136.76,131.83c-2.79,0-3.78-1.38-4.1-2.6-1-4,4-11.76,9-13.91a.55.55,0,0,1,.44,1c-4.43,1.91-9.28,9.22-8.37,12.63.37,1.4,1.73,2,4,1.72a.55.55,0,0,1,.6.49.54.54,0,0,1-.48.6C137.48,131.8,137.1,131.83,136.76,131.83Z" style="fill:#263238"></path><path d="M151.61,120.22l-10.83.36a3.16,3.16,0,0,1-3.27-3.19h0a3.42,3.42,0,0,1,3.26-3.4l10.83-.36a3.16,3.16,0,0,1,3.27,3.19h0A3.42,3.42,0,0,1,151.61,120.22Z" style="fill:#0DCAF0"></path><path d="M148.74,100.3c3.69-5.74,13.35-7.47,19.46-3.87,7.15,4.21,7,12.66-5.07,17.39C150,119,148.74,100.3,148.74,100.3Z" style="fill:#263238"></path><path d="M165.17,113.72a9.08,9.08,0,0,1,2.92,4.84c.54,2.39-1,2.07-2.77,1.09-1.6-.88-4.1-2.62-4-4.61S163.6,112.37,165.17,113.72Z" style="fill:#ff8b7b"></path><path d="M163.56,201.49s-5.67,62.66-11.39,97.93c-4.62,28.48-8.53,95.12-8.53,95.12H131.16s-4.07-65-1.65-93.26c6.14-71.39-6.59-77.47,6.67-100.32Z" style="fill:#263238"></path><path d="M150.87,222.44c3.25,4.78,7.59,10.29,9,16.11-1.12,10.57-2.43,22.26-3.85,33.5C152.58,262.6,146.7,243.71,150.87,222.44Z" style="opacity:0.4"></path><path d="M173.39,201.69s12.17,68.58,17.28,96.06c5.31,28.57,20.38,92.17,20.38,92.17l-12.45,6.4s-25.75-76.8-28.82-91.21C161.66,275,138.4,201,138.4,201Z" style="fill:#263238"></path><polygon points="213.63 392.59 198.5 398.62 195.56 393.35 211.75 386.88 213.63 392.59" style="fill:#0DCAF0"></polygon><polygon points="145.35 394.79 129.46 394.79 128.54 389.21 145.36 388.64 145.35 394.79" style="fill:#0DCAF0"></polygon><path d="M135.64,198.77l-1.7,3.29c-.13.25.18.52.61.53l39,.77c.34,0,.62-.16.64-.37l.35-3.31c0-.23-.26-.43-.63-.44l-37.67-.74A.65.65,0,0,0,135.64,198.77Z" style="fill:#0DCAF0"></path><path d="M140.68,203.07l-1,0c-.2,0-.36-.11-.34-.23l.5-4.31c0-.13.19-.23.39-.23l1,0c.2,0,.35.11.34.24l-.5,4.31C141.05,203,140.88,203.08,140.68,203.07Z" style="fill:#263238"></path><path d="M165.13,203.55l-1,0c-.2,0-.35-.11-.33-.23l.49-4.31c0-.13.19-.23.4-.23l1,0c.21,0,.36.11.34.24l-.5,4.31C165.51,203.46,165.33,203.56,165.13,203.55Z" style="fill:#263238"></path><path d="M183.53,153.22c1.13,1.91,2.33,4,3.56,5.91s2.45,3.93,3.74,5.83,2.62,3.78,4,5.59,2.78,3.52,4.25,5.09a9.61,9.61,0,0,0,4.3,2.4,30.76,30.76,0,0,0,6.24,1.08,81,81,0,0,0,13.65-.22l1,4.52a57.72,57.72,0,0,1-14.79,2.75,34.07,34.07,0,0,1-8-.51,21.61,21.61,0,0,1-4.22-1.29,14.75,14.75,0,0,1-4.13-2.66,74.68,74.68,0,0,1-9.91-11.46,115.08,115.08,0,0,1-7.92-12.52Z" style="fill:#ff8b7b"></path><path d="M178.2,146.53c8.88,1.41,12.55,14.08,12.55,14.08l-10.67,10.28S168,159.8,168,152.74C168,147.49,173.36,145.76,178.2,146.53Z" style="fill:#0DCAF0"></path><path d="M178.2,146.53c8.88,1.41,12.55,14.08,12.55,14.08l-10.67,10.28S168,159.8,168,152.74C168,147.49,173.36,145.76,178.2,146.53Z" style="opacity:0.2"></path><path d="M233.79,173.14c-.12,1.59-.33,3.16-.56,4.72s-.51,3.11-.8,4.65-.62,3.08-1,4.61-.31,3.16-2,4.31a1.41,1.41,0,0,1-1.69-.24,1.48,1.48,0,0,1-.22-.29c-1-1.9-.13-3.29.15-4.83s.79-3,1.22-4.54.89-3,1.38-4.49,1-3,1.61-4.43a1,1,0,0,1,1.24-.37A1,1,0,0,1,233.79,173.14Z" style="fill:#263238"></path><path d="M233.92,174.83l-3-.49c-.45-.08-.67-.63-.5-1.23h0c.17-.6.68-1,1.13-1l3,.5c.45.07.67.62.5,1.23h0C234.88,174.48,234.37,174.91,233.92,174.83Z" style="fill:#263238"></path><path d="M238.92,151.1c-4.56-1.32-9.84,2.53-11.78,8.61s.18,12.08,4.74,13.4,9.84-2.54,11.79-8.61S243.49,152.42,238.92,151.1Zm-6.48,20.27c-3.85-1.11-5.63-6.16-4-11.28s6.08-8.36,9.92-7.25,5.64,6.16,4,11.28S236.28,172.48,232.44,171.37Z" style="fill:#0DCAF0"></path><path d="M233.5,172c-3.6-1-5.28-5.78-3.75-10.57s5.7-7.85,9.31-6.8,5.28,5.78,3.74,10.57S237.1,173,233.5,172Z" style="fill:#0DCAF0;opacity:0.1"></path><path d="M220.39,183.75l9.8,1.83,1-8.22s-8.06.47-10.83,3Z" style="fill:#ff8b7b"></path><path d="M232.65,185.56l1.73-5.46a.84.84,0,0,0-.36-1l-2.8-1.77-1,8.22,1.35.52A.85.85,0,0,0,232.65,185.56Z" style="fill:#ff8b7b"></path></g></svg>